<svg width="202" height="151" viewBox="0 0 202 151" fill="none" xmlns="http://www.w3.org/2000/svg">
<mask id="path-1-inside-1" fill="white">
<path fill-rule="evenodd" clip-rule="evenodd" d="M201.109 39.4618H1.10925V112.203V112.655H1.11603C1.74631 133.656 46.2734 150.606 101.109 150.606C155.945 150.606 200.472 133.656 201.102 112.655H201.109V112.203V39.4618Z"/>
</mask>
<path fill-rule="evenodd" clip-rule="evenodd" d="M201.109 39.4618H1.10925V112.203V112.655H1.11603C1.74631 133.656 46.2734 150.606 101.109 150.606C155.945 150.606 200.472 133.656 201.102 112.655H201.109V112.203V39.4618Z" fill="white"/>
<path d="M1.10925 39.4618V35.4618H-2.89075V39.4618H1.10925ZM201.109 39.4618H205.109V35.4618H201.109V39.4618ZM1.10925 112.655H-2.89075V116.655H1.10925V112.655ZM1.11603 112.655L5.11423 112.535L4.99778 108.655H1.11603V112.655ZM201.102 112.655V108.655H197.221L197.104 112.535L201.102 112.655ZM201.109 112.655V116.655H205.109V112.655H201.109ZM1.10925 43.4618H201.109V35.4618H1.10925V43.4618ZM5.10925 112.203V39.4618H-2.89075V112.203H5.10925ZM5.10925 112.655V112.203H-2.89075V112.655H5.10925ZM1.11603 108.655H1.10925V116.655H1.11603V108.655ZM101.109 146.606C74.0519 146.606 49.7137 142.418 32.2061 135.767C23.4399 132.437 16.5821 128.563 11.9492 124.452C7.31055 120.337 5.22712 116.296 5.11423 112.535L-2.88217 112.775C-2.67992 119.514 1.03889 125.467 6.63991 130.437C12.2468 135.411 20.0661 139.713 29.365 143.245C47.9874 150.32 73.3307 154.606 101.109 154.606V146.606ZM197.104 112.535C196.991 116.296 194.908 120.337 190.269 124.452C185.636 128.563 178.779 132.437 170.012 135.767C152.505 142.418 128.167 146.606 101.109 146.606V154.606C128.888 154.606 154.231 150.32 172.853 143.245C182.152 139.713 189.972 135.411 195.579 130.437C201.18 125.467 204.898 119.514 205.101 112.775L197.104 112.535ZM201.109 108.655H201.102V116.655H201.109V108.655ZM197.109 112.203V112.655H205.109V112.203H197.109ZM197.109 39.4618V112.203H205.109V39.4618H197.109Z" fill="#303030" mask="url(#path-1-inside-1)"/>
<path d="M199.109 39.0099C199.109 43.5538 196.719 48.1079 191.906 52.4776C187.093 56.8477 180.017 60.875 171.103 64.2983C153.288 71.1397 128.542 75.4135 101.109 75.4135C73.676 75.4135 48.9301 71.1397 31.1156 64.2983C22.2016 60.875 15.1253 56.8477 10.3122 52.4776C5.49951 48.1079 3.10925 43.5538 3.10925 39.0099C3.10925 34.466 5.49951 29.9119 10.3122 25.5422C15.1253 21.1721 22.2016 17.1448 31.1156 13.7215C48.9301 6.88011 73.676 2.60632 101.109 2.60632C128.542 2.60632 153.288 6.88011 171.103 13.7215C180.017 17.1448 187.093 21.1721 191.906 25.5422C196.719 29.9119 199.109 34.466 199.109 39.0099Z" fill="white" stroke="#303030" stroke-width="4"/>
<path d="M199.436 89.1606C199.436 110.62 156.338 128.016 101.109 128.016C45.8807 128.016 2.78284 110.62 2.78284 89.1606" stroke="#303030" stroke-width="4"/>
<path d="M199.436 62.9558C199.436 84.4151 155.919 101.811 100.691 101.811C45.4623 101.811 2.78284 84.4151 2.78284 62.9558" stroke="#303030" stroke-width="4"/>
<path fill-rule="evenodd" clip-rule="evenodd" d="M156.688 62.9628C155.555 63.2696 154.399 63.5673 153.22 63.8556L148.479 59.3804L154.481 53.7149L160.484 59.3804L156.688 62.9628ZM158.753 62.3866C160.024 62.0212 161.263 61.644 162.47 61.2556L161.211 60.0669L158.753 62.3866ZM161.938 59.3804L163.55 60.9021C166.622 59.8801 169.473 58.7836 172.079 57.6216L167.94 53.7152L161.938 59.3804ZM168.667 53.0288L173.06 57.1753C175.907 55.8559 178.442 54.4556 180.628 52.9866L174.67 47.363L168.667 53.0288ZM173.943 46.6766L167.94 52.3424L161.938 46.6769L167.94 41.0111L173.943 46.6766ZM175.397 46.6766L181.468 52.4066C184.004 50.6056 186.023 48.7063 187.458 46.7303L181.399 41.0113L175.397 46.6766ZM180.672 40.3249L174.67 45.9902L168.668 40.3247L174.67 34.6594L180.672 40.3249ZM182.126 40.3249L188.027 45.8947C189.319 43.8649 189.998 41.759 189.998 39.5998C189.998 37.7697 189.51 35.9779 188.575 34.2383L182.126 40.3249ZM188.058 33.3534L181.399 39.6385L175.397 33.973L182.333 27.4263C184.825 29.3078 186.757 31.2915 188.058 33.3534ZM167.213 53.0288L161.211 58.694L155.209 53.0285L161.211 47.3633L167.213 53.0288ZM48.0718 63.8555C46.8935 63.5672 45.737 63.2694 44.6032 62.9626L40.8083 59.3806L46.8108 53.7148L52.8131 59.3803L48.0718 63.8555ZM40.0811 60.067L42.5384 62.3864C41.2682 62.021 40.0289 61.6439 38.822 61.2555L40.0811 60.067ZM46.0836 53.0284L40.0811 58.6941L34.0791 53.0289L40.0816 47.3631L46.0836 53.0284ZM39.3539 59.3806L33.3519 53.7153L29.2135 57.6215C31.8192 58.7835 34.6706 59.8799 37.742 60.9021L39.3539 59.3806ZM39.3544 46.6767L33.3519 52.3424L27.3496 46.677L33.3522 41.0112L39.3544 46.6767ZM32.6246 53.0288L26.6224 47.3634L20.6649 52.9866C22.8509 54.4555 25.3853 55.8558 28.2319 57.1752L32.6246 53.0288ZM32.625 40.3248L26.6224 45.9906L20.6199 40.3248L26.6224 34.659L32.625 40.3248ZM25.8952 46.677L19.8927 41.0112L13.8342 46.7298C15.2695 48.706 17.288 50.6055 19.825 52.4066L25.8952 46.677ZM25.8952 33.9726L19.8927 39.6384L13.2345 33.3537C14.5355 31.2917 16.4676 29.308 18.9598 27.4263L25.8952 33.9726ZM19.1655 40.3248L12.7176 34.2387C11.7826 35.9782 11.2944 37.7699 11.2944 39.5998C11.2944 41.7588 11.9739 43.8645 13.265 45.8942L19.1655 40.3248ZM139.327 66.6461C136.485 67.1051 133.559 67.515 130.559 67.8727L128.291 65.7322L134.293 60.0671L140.295 65.7325L139.327 66.6461ZM141.022 65.0461L135.02 59.3807L141.023 53.715L147.025 59.3804L141.022 65.0461ZM141.75 65.7325L142.203 66.1602C145.626 65.5553 148.918 64.8781 152.061 64.1345L147.752 60.0669L141.75 65.7325ZM160.483 46.6769L154.481 52.3421L148.479 46.6767L154.481 41.0114L160.483 46.6769ZM167.213 40.3247L161.211 45.9904L155.209 40.325L161.211 34.6593L167.213 40.3247ZM173.942 33.973L167.94 39.6383L161.938 33.9729L167.94 28.3076L173.942 33.973ZM181.514 26.8261L174.67 33.2866L168.668 27.6212L174.084 22.5087C176.901 23.87 179.39 25.3135 181.514 26.8261ZM153.754 53.0285L147.752 58.694L141.75 53.0286L147.752 47.3631L153.754 53.0285ZM70.7338 67.8727C67.7339 67.515 64.8078 67.1051 61.9652 66.6461L60.997 65.7322L66.9988 60.0671L73.001 65.7327L70.7338 67.8727ZM66.2716 59.3807L60.2698 65.0458L54.2675 59.3803L60.2693 53.7152L66.2716 59.3807ZM53.5403 60.0667L59.5426 65.7322L59.0893 66.1601C55.6659 65.5552 52.3737 64.878 49.2308 64.1344L53.5403 60.0667ZM59.5421 53.0288L53.5403 58.6939L47.5381 53.0284L53.5398 47.3633L59.5421 53.0288ZM52.8126 46.6769L46.8108 52.342L40.8088 46.6767L46.8106 41.0116L52.8126 46.6769ZM46.0834 40.3252L40.0816 45.9903L34.0794 40.3248L40.0812 34.6597L46.0834 40.3252ZM39.354 33.9733L33.3522 39.6384L27.3496 33.9726L33.3514 28.3076L39.354 33.9733ZM32.6242 27.6212L26.6224 33.2862L19.7784 26.8262C21.9022 25.3136 24.3916 23.8703 27.2081 22.509L32.6242 27.6212ZM125.438 68.4252C126.726 68.3006 128.001 68.1666 129.264 68.0233L127.564 66.4186L125.438 68.4252ZM126.837 65.7322L123.824 68.5758C122.006 68.7392 120.165 68.8839 118.303 69.0092L114.832 65.7323L120.834 60.0666L126.837 65.7322ZM127.564 65.0458L121.562 59.3802L127.563 53.715L133.566 59.3807L127.564 65.0458ZM147.025 46.6767L141.023 52.3422L135.02 46.6766L141.023 41.011L147.025 46.6767ZM153.754 40.325L147.752 45.9903L141.75 40.3246L147.752 34.6594L153.754 40.325ZM160.484 33.9729L154.481 39.6386L148.479 33.973L154.481 28.3072L160.484 33.9729ZM167.213 27.6212L161.211 33.2865L155.209 27.6208L161.211 21.9555L167.213 27.6212ZM173.116 22.0499L167.94 26.9347L161.938 21.2691L164.68 18.6804C167.729 19.7317 170.549 20.8579 173.116 22.0499ZM140.295 53.0286L134.293 58.6943L128.291 53.0286L134.293 47.363L140.295 53.0286ZM83.2185 69.0246C81.2782 68.8958 79.3605 68.7459 77.4675 68.5757L74.4555 65.7327L80.4579 60.067L86.4601 65.7324L83.0954 68.9083L83.2185 69.0246ZM73.7283 66.4191L75.8535 68.4251C74.5664 68.3005 73.2912 68.1665 72.0286 68.0233L73.7283 66.4191ZM79.7307 59.3806L73.7283 65.0463L67.726 59.3807L73.7284 53.715L79.7307 59.3806ZM73.0012 53.0286L66.9988 58.6943L60.9965 53.0288L66.999 47.3631L73.0012 53.0286ZM66.2717 46.6767L60.2693 52.3424L54.2671 46.6769L60.2695 41.0112L66.2717 46.6767ZM59.5423 40.3248L53.5398 45.9905L47.5378 40.3252L53.5403 34.6595L59.5423 40.3248ZM52.8131 33.9731L46.8106 39.6388L40.8084 33.9733L46.8108 28.3076L52.8131 33.9731ZM46.0836 27.6212L40.0812 33.2869L34.0786 27.6212L40.0811 21.9555L46.0836 27.6212ZM39.3539 21.269L33.3514 26.9347L28.1765 22.0502C30.7425 20.8581 33.5631 19.732 36.6116 18.6806L39.3539 21.269ZM110.547 69.4127C108.852 69.4755 107.143 69.5223 105.42 69.5527L101.373 65.7326L107.375 60.067L113.377 65.7323L110.013 68.9083L110.547 69.4127ZM114.105 65.0459L108.103 59.3806L114.105 53.7149L120.107 59.3802L114.105 65.0459ZM114.105 66.4187L110.949 69.3976C112.968 69.3198 114.966 69.2193 116.942 69.0971L114.105 66.4187ZM133.566 46.6766L127.563 52.3422L121.561 46.6769L127.564 41.0113L133.566 46.6766ZM140.295 40.3246L134.293 45.9902L128.291 40.3249L134.293 34.6593L140.295 40.3246ZM147.024 33.973L141.023 39.6382L135.02 33.9729L141.022 28.3077L147.024 33.973ZM153.754 27.6208L147.752 33.2866L141.75 27.6213L147.752 21.9555L153.754 27.6208ZM160.483 21.2691L154.481 26.9344L148.479 21.2691L154.436 15.6468L154.56 15.6784L160.483 21.2691ZM163.61 18.3175L161.211 20.5827L156.574 16.2058C159.029 16.8682 161.378 17.5732 163.61 18.3175ZM126.836 53.0286L120.834 58.6937L114.832 53.0284L120.834 47.3633L126.836 53.0286ZM97.259 69.5736C95.4432 69.5509 93.6412 69.51 91.8546 69.4514L87.9145 65.7324L93.9165 60.0671L99.9187 65.7326L96.5541 68.9083L97.259 69.5736ZM87.1873 66.4188L90.3431 69.3975C88.3241 69.3197 86.3256 69.2193 84.3498 69.0971L87.1873 66.4188ZM93.1893 59.3807L87.1873 65.046L81.1852 59.3806L87.1871 53.7153L93.1893 59.3807ZM86.4599 53.0289L80.4579 58.6941L74.4557 53.0286L80.4576 47.3634L86.4599 53.0289ZM79.7304 46.677L73.7284 52.3422L67.7262 46.6767L73.7281 41.0114L79.7304 46.677ZM73.0009 40.325L66.999 45.9903L60.9967 40.3248L66.9987 34.6596L73.0009 40.325ZM66.2715 33.9732L60.2695 39.6384L54.2675 33.9731L60.2695 28.3079L66.2715 33.9732ZM59.5422 27.6214L53.5403 33.2867L47.5381 27.6212L53.54 21.956L59.5422 27.6214ZM52.8128 21.2696L46.8108 26.9348L40.8083 21.269L46.7309 15.6787L46.856 15.647L52.8128 21.2696ZM44.7177 16.2062L40.0811 20.5826L37.6816 18.3177C39.9138 17.5734 42.2626 16.8685 44.7177 16.2062ZM97.3031 69.5742C98.4125 69.5879 99.527 69.5948 100.646 69.5948C101.765 69.5948 102.88 69.5879 103.989 69.5742L100.646 66.419L97.3031 69.5742ZM100.646 65.0461L94.6437 59.3807L100.646 53.7152L106.648 59.3806L100.646 65.0461ZM120.107 46.6769L114.105 52.342L108.103 46.6766L114.105 41.0115L120.107 46.6769ZM126.837 40.3249L120.834 45.9905L114.832 40.3251L120.834 34.6595L126.837 40.3249ZM133.566 33.9729L127.564 39.6384L121.562 33.973L127.564 28.3075L133.566 33.9729ZM140.295 27.6213L134.293 33.2865L128.291 27.6211L134.293 21.9559L140.295 27.6213ZM147.025 21.2691L141.022 26.9349L135.02 21.2695L141.023 15.6037L147.025 21.2691ZM153.285 15.36L147.752 20.5827L141.75 14.9173L143.493 13.272C146.898 13.8978 150.168 14.5958 153.285 15.36ZM113.378 53.0284L107.375 58.6942L101.373 53.0288L107.376 47.363L113.378 53.0284ZM99.9188 53.0288L93.9165 58.6943L87.9143 53.0289L93.9166 47.3634L99.9188 53.0288ZM93.1894 46.677L87.1871 52.3425L81.1848 46.677L87.1871 41.0114L93.1894 46.677ZM86.4599 40.325L80.4576 45.9906L74.4554 40.325L80.4576 34.6595L86.4599 40.325ZM79.7304 33.9731L73.7281 39.6386L67.7259 33.9732L73.7282 28.3076L79.7304 33.9731ZM73.001 27.6212L66.9987 33.2867L60.9967 27.6214L66.999 21.9559L73.001 27.6212ZM66.2717 21.2695L60.2695 26.935L54.2672 21.2696L60.2695 15.604L66.2717 21.2695ZM59.5423 14.9176L53.54 20.5832L48.0066 15.3601C51.1238 14.596 54.3941 13.8979 57.799 13.2721L59.5423 14.9176ZM106.649 46.6766L100.646 52.3424L94.6438 46.677L100.646 41.0112L106.649 46.6766ZM113.378 40.3251L107.376 45.9902L101.374 40.3248L107.375 34.6597L113.378 40.3251ZM120.107 33.973L114.105 39.6387L108.103 33.9733L114.105 28.3076L120.107 33.973ZM126.837 27.6211L120.834 33.2866L114.832 27.6212L120.835 21.9557L126.837 27.6211ZM133.566 21.2694L127.564 26.9347L121.562 21.2693L127.564 15.604L133.566 21.2694ZM140.296 14.9173L134.293 20.583L128.291 14.9176L131.919 11.4933C133.805 11.7299 135.662 11.9874 137.485 12.2648L140.296 14.9173ZM142.272 13.0517L141.023 14.2309L139.229 12.5377C140.254 12.7027 141.269 12.8741 142.272 13.0517ZM99.9191 40.3248L93.9166 45.9906L87.9143 40.325L93.9169 34.6593L99.9191 40.3248ZM93.1897 33.9729L87.1871 39.6386L81.1848 33.9731L87.1874 28.3073L93.1897 33.9729ZM86.4602 27.6209L80.4576 33.2867L74.4554 27.6212L80.4579 21.9555L86.4602 27.6209ZM79.7307 21.269L73.7282 26.9348L67.7262 21.2695L73.7287 15.6038L79.7307 21.269ZM73.0015 14.9173L66.999 20.5831L60.9967 14.9176L63.8073 12.2648C65.631 11.9874 67.4873 11.7299 69.3739 11.4933L73.0015 14.9173ZM62.0638 12.5376L60.2695 14.2312L59.02 13.0518C60.0235 12.8742 61.0382 12.7027 62.0638 12.5376ZM74.4559 14.9173L80.4579 20.5826L86.4598 14.9175L81.5581 10.2908C80.7544 10.3495 79.9548 10.4119 79.1593 10.4778L74.4559 14.9173ZM77.5587 10.6158C75.2204 10.8251 72.9199 11.0655 70.6612 11.3356L73.7287 14.2309L77.5587 10.6158ZM130.631 11.3356L127.564 14.2312L123.733 10.6157C126.072 10.8251 128.373 11.0655 130.631 11.3356ZM126.837 14.9176L122.133 10.4778C121.337 10.4118 120.538 10.3495 119.734 10.2908L114.832 14.9173L120.835 20.5829L126.837 14.9176ZM81.1852 21.269L87.1874 26.9345L93.1892 21.2694L87.187 15.6039L81.1852 21.269ZM87.9142 14.9175L93.9164 20.583L99.9188 14.9173L94.3678 9.67776C94.0584 9.68497 93.7494 9.69271 93.4408 9.70097L87.9142 14.9175ZM91.9393 9.74545L87.187 14.2311L82.9117 10.1957C85.8706 9.99564 88.8824 9.84469 91.9393 9.74545ZM120.107 21.2693L114.105 15.6038L108.103 21.2693L114.105 26.9348L120.107 21.2693ZM118.38 10.1956L114.105 14.2309L109.353 9.74544C112.41 9.84467 115.421 9.99561 118.38 10.1956ZM113.378 14.9173L107.851 9.70096C107.543 9.6927 107.234 9.68496 106.924 9.67775L101.373 14.9173L107.376 20.5829L113.378 14.9173ZM87.9146 27.6209L93.9169 33.2865L99.9187 27.6213L93.9164 21.9558L87.9146 27.6209ZM94.6436 21.2694L100.646 26.9349L106.648 21.2693L100.646 15.6038L94.6436 21.2694ZM105.501 9.64838L100.646 14.2309L95.7911 9.64839C97.3986 9.61949 99.0173 9.60486 100.646 9.60486C102.275 9.60486 103.894 9.61949 105.501 9.64838ZM113.378 27.6212L107.376 21.9557L101.373 27.6213L107.375 33.2869L113.378 27.6212ZM94.6441 33.9729L100.646 39.6384L106.648 33.9733L100.646 28.3077L94.6441 33.9729Z" fill="#F0BC67"/>
<path d="M75.5862 43.9965C84.3728 33.7555 106.883 19.4182 126.632 43.9965" stroke="#303030" stroke-width="4" stroke-linecap="round"/>
</svg>
