<svg width="92" height="139" viewBox="0 0 92 139" fill="none" xmlns="http://www.w3.org/2000/svg">
<path d="M36.5948 61.6722C14.353 59.9887 13.8315 74.2412 18.7422 84.1968C20.0313 86.8102 21.2107 89.5472 19.7484 92.0678C17.8434 95.3515 13.9361 99.9475 8.30903 104.586C1.33953 110.331 -2.18163 119.852 1.46231 128.117C4.22025 134.372 10.4114 138.408 17.2473 138.408H82.6417C85.5668 138.408 88.188 136.601 89.2289 133.868C91.6638 127.474 88.9481 113.304 83.9084 108.676C80.411 105.465 76.4979 101.896 72.4863 98.6694C69.4485 96.2259 68.0084 92.3946 71.2866 90.2844C78.7763 85.4632 94.5823 80.6971 91.5423 66.5646C90.762 62.9374 87.7215 58.6887 83.6212 54.9947C73.8785 46.2175 53.1974 41.739 52.4688 28.646C52.241 24.5544 52.6414 19.1608 54 11.96C54.5893 8.83692 54.7202 6.47082 54.5033 4.75105C52.0394 -14.7883 26.3587 40.1868 39.6686 54.7025C43.8397 59.2513 45.29 62.3304 36.5948 61.6722Z" fill="white" fill-opacity="0.46"/>
</svg>
