<svg width="166" height="199" viewBox="0 0 166 199" fill="none" xmlns="http://www.w3.org/2000/svg">
<path d="M113.265 23.0693L5.05809 146.88C3.90089 148.204 3.90803 150.182 5.0747 151.498C6.45493 153.054 8.88107 153.067 10.278 151.526L120.695 29.6823C122.824 27.3336 122.242 23.6198 119.497 22.035C117.439 20.8469 114.828 21.2802 113.265 23.0693Z" fill="white" stroke="#303030" stroke-width="4"/>
<path d="M153.092 71.9164L16.5276 163.502C15.0672 164.482 14.5622 166.394 15.3486 167.967C16.2789 169.828 18.619 170.468 20.3673 169.341L158.558 80.2273C161.222 78.5095 161.621 74.7716 159.379 72.5303C157.699 70.8501 155.065 70.593 153.092 71.9164Z" fill="white" stroke="#303030" stroke-width="4"/>
</svg>
